<svg xmlns="http://www.w3.org/2000/svg" width="780.97998" height="639.54999" viewBox="0 0 780.97998 639.54999" xmlns:xlink="http://www.w3.org/1999/xlink" role="img" artist="Katerina Limpitsouni" source="https://undraw.co/"><circle cx="602.2874" cy="72.40145" r="42.14768" fill="#2f2e41"></circle><polygon points="583.038 604.544 566.779 601.155 572.115 536.83 596.112 541.832 583.038 604.544" fill="#ffb6b6"></polygon><path d="M794.29028,726.415l-17.20019-4.66-2.75-.75-2.29,11.00994-10.29981,4.34-12.59033,5.3-.02.01-4.77,2.01-.27.12c-.15966.07-.30957.14-.46.22h-.00976c-.1001.05-.2002.11005-.3003.16a7.22263,7.22263,0,0,0-2.03955,1.77,7.03625,7.03625,0,0,0,4.09961,11.21l3.12012.65,4.5.94,1.18018.24,14.57959,3.04v.01l7.22021,1.5,7.54-9.8-.21,11.32,11.16015,2.33.37989.08.00976-.08,4.86035-39.49Z" transform="translate(-209.51001 -130.22501)" fill="#2f2e41"></path><polygon points="667.928 587.822 653.676 596.35 614.001 545.438 635.034 532.852 667.928 587.822" fill="#ffb6b6"></polygon><path d="M901.30005,740.515,878.05981,708.125l-5,2.6-15.80957,8.23-2.53027,1.31,5.78027,9.65-12.57031,27.61a7.02469,7.02469,0,0,0,5.39014,9.86,7.10739,7.10739,0,0,0,2.06006,0,6.87219,6.87219,0,0,0,2.56006-.92L884.76,750.415l-1.08984-12.31,7.52,8.47Z" transform="translate(-209.51001 -130.22501)" fill="#2f2e41"></path><polygon points="630.909 295.182 552.634 292.172 548.119 210.887 638.435 210.887 630.909 295.182" fill="#ffb8b8"></polygon><path d="M890.1034,481.18957a12.53809,12.53809,0,0,1,.74012-19.21143l-14.21142-42.229,22.38525,5.91574,10.06351,39.19445a12.60606,12.60606,0,0,1-18.97746,16.33027Z" transform="translate(-209.51001 -130.22501)" fill="#ffb6b6"></path><circle cx="595.84964" cy="86.56641" r="29.80855" fill="#ffb8b8"></circle><polygon points="626.25 66 596.011 42.358 571.25 48 561.3 82.263 576.112 81.523 580.25 68.991 580.25 81.316 587.086 80.975 591.052 61.024 593.532 82.263 617.83 81.619 626.25 66" fill="#2f2e41"></polygon><path d="M760.63918,404.33322s-26.07827,45.32705-.90126,114.0994l69.542,177.325,33.24558-19.65321L828.637,599.7623l27.56586-93.44484a162.40209,162.40209,0,0,0,5.75081-65.38738c-1.9866-16.43256-9.88527-24.09888-20.02971-39.60741C808.04944,423.17193,762.10182,414.50076,760.63918,404.33322Z" transform="translate(-209.51001 -130.22501)" fill="#2f2e41"></path><polygon points="585.788 456.036 562.577 563.857 596.154 570.187 615.275 479.548 585.788 456.036" fill="#2f2e41"></polygon><path d="M826.34546,254.225l-38.53975.51373-12.54317,15.92732-20.19309,4.76209-5.24823,30.32818c-2.6238,15.16228.16182,24.76446,7.87043,38.082l0,0,.92322,26.19792-1.02017,1.85417a4.246,4.246,0,0,0,1.28009,5.52174h0a8.67458,8.67458,0,0,0-.23834,5.70882l.49744,1.64367s1.43552,11.48413,82.81064-.59409a8.02363,8.02363,0,0,0,6.78072-6.89257h0v0a5.991,5.991,0,0,0,1.10944-6.90311l-.1658-.33156.83565-.98419a6.44319,6.44319,0,0,0,.32612-7.92281h0l11.69487-83.662-24.15812-7.524Z" transform="translate(-209.51001 -130.22501)" fill="#e4e4e4"></path><path d="M852.87836,285.4817l9.64717-8.00737s8.57773,2.53536,14.56826,19.43041,26.54645,145.06034,26.54645,145.06034l-24.08439-12.0422-34.15094-94.16466Z" transform="translate(-209.51001 -130.22501)" fill="#e4e4e4"></path><path d="M638.61185,421.932a12.53809,12.53809,0,0,0,14.38132-12.75949l41.65938-15.80352-18.77376-13.55145-36.68223,17.08488a12.60606,12.60606,0,0,0-.58471,25.02958Z" transform="translate(-209.51001 -130.22501)" fill="#ffb6b6" style="
    /* transform: translate(-210px, -240px); */
"></path><path d="M766.25577,284.75088l-6.53992-10.69651s-8.93675-.37429-20.06824,13.67631c-5.70643,7.20288-42.68817,68.989-42.68817,68.989L662.76,385.225l28,10,33-14,37-61Z" transform="translate(-209.51001 -130.22501)" fill="#e4e4e4"></path><path d="M908.43335,209.24289c-8.77832-9.95148-14.32471-22.25946-20.0625-34.22443-5.73828-11.9649-11.99512-24.05346-21.76953-33.02789-9.7749-8.97443-23.86035-14.35651-36.55811-10.50256s-21.85058,18.992-16.46582,31.12l.44873,1.94586c30.43018,1.25757,59.69239,18.90821,74.999,45.2381,7.22461,12.42768,11.69238,26.81256,21.91015,36.92414a43.06339,43.06339,0,0,0,72.062-20.13831C957.8269,236.95712,926.44312,229.66092,908.43335,209.24289Z" transform="translate(-209.51001 -130.22501)" fill="#2f2e41"></path></svg>
